<svg data-v-423bf9ae="" xmlns="http://www.w3.org/2000/svg" viewBox="0 0 319.5242291220062 60" class="font"><!----><!----><!----><g data-v-423bf9ae="" id="4545d201-a219-4a91-9c99-38b5a3e8fc00" fill="white" transform="matrix(5.097706247069396,0,0,5.097706247069396,-3.2115550667170396,-9.991503961880916)"><path d="M7.64 11.07L7.70 11.07L11.34 2.80L14.48 2.80L14.48 3.33Q14.03 3.35 13.76 3.44Q13.48 3.54 13.34 3.77Q13.19 4.00 13.14 4.41Q13.09 4.82 13.09 5.45L13.09 5.45L13.09 10.93Q13.09 11.63 13.15 12.04Q13.20 12.45 13.36 12.67Q13.52 12.89 13.83 12.96Q14.13 13.03 14.62 13.05L14.62 13.05L14.62 13.58L10.08 13.58L10.08 13.05Q10.57 13.03 10.87 12.96Q11.17 12.88 11.34 12.67Q11.51 12.46 11.56 12.07Q11.62 11.69 11.62 11.03L11.62 11.03L11.62 4.54L11.48 4.54L7.39 13.72L7.08 13.72L3.07 4.54L3.01 4.54L3.01 10.93Q3.01 11.63 3.07 12.04Q3.12 12.45 3.28 12.67Q3.44 12.89 3.75 12.96Q4.05 13.03 4.54 13.05L4.54 13.05L4.54 13.58L0.63 13.58L0.63 13.05Q1.12 13.03 1.42 12.96Q1.72 12.88 1.89 12.67Q2.06 12.46 2.11 12.07Q2.17 11.69 2.17 11.03L2.17 11.03L2.17 5.35Q2.17 4.76 2.12 4.38Q2.07 3.99 1.93 3.77Q1.78 3.54 1.50 3.45Q1.22 3.36 0.77 3.33L0.77 3.33L0.77 2.80L4.12 2.80L7.64 11.07ZM20.15 10.54L20.15 9.44Q19.35 9.74 18.80 10.04Q18.24 10.33 17.91 10.63Q17.57 10.92 17.42 11.21Q17.28 11.51 17.28 11.82L17.28 11.82Q17.28 12.28 17.58 12.57Q17.89 12.87 18.40 12.87L18.40 12.87Q18.76 12.87 19.07 12.68Q19.39 12.50 19.63 12.19Q19.87 11.87 20.01 11.45Q20.15 11.02 20.15 10.54L20.15 10.54ZM18.13 9.72L20.15 8.83L20.15 8.26Q20.15 6.55 18.69 6.55L18.69 6.55Q18.45 6.55 18.28 6.59Q18.12 6.64 18.00 6.73Q17.89 6.83 17.80 7.01Q17.71 7.20 17.63 7.46L17.63 7.46Q17.47 7.87 17.32 8.00Q17.18 8.13 16.90 8.13L16.90 8.13Q16.20 8.13 16.20 7.43L16.20 7.43Q16.20 6.76 16.91 6.39Q17.63 6.02 18.94 6.02L18.94 6.02Q20.34 6.02 20.93 6.52Q21.52 7.01 21.52 8.20L21.52 8.20L21.52 11.34Q21.52 12.94 22.15 12.94L22.15 12.94Q22.34 12.94 22.53 12.89Q22.71 12.84 22.83 12.63L22.83 12.63L23.03 12.96Q22.86 13.29 22.41 13.50Q21.97 13.72 21.48 13.72L21.48 13.72Q20.86 13.72 20.56 13.33Q20.26 12.94 20.26 12.22L20.26 12.22L20.19 12.22Q19.82 12.91 19.18 13.31Q18.54 13.71 17.75 13.71L17.75 13.71Q16.87 13.71 16.37 13.26Q15.86 12.81 15.86 12.05L15.86 12.05Q15.86 11.72 15.98 11.41Q16.10 11.10 16.37 10.82Q16.63 10.54 17.07 10.27Q17.50 10.00 18.13 9.72L18.13 9.72ZM24.42 7.04L23.58 7.04L23.58 6.52Q24.32 6.09 24.74 5.66Q25.16 5.22 25.38 4.62L25.38 4.62L25.79 4.62L25.79 6.38L27.66 6.38L27.66 7.04L25.79 7.04L25.79 11.30Q25.79 11.79 25.84 12.12Q25.89 12.46 26.00 12.66Q26.11 12.87 26.29 12.95Q26.47 13.03 26.75 13.03L26.75 13.03Q27.10 13.03 27.35 12.89Q27.59 12.74 27.83 12.39L27.83 12.39L28.18 12.66Q27.99 13.17 27.50 13.45Q27.02 13.72 26.31 13.72L26.31 13.72Q25.38 13.72 24.90 13.28Q24.42 12.84 24.42 12.01L24.42 12.01L24.42 7.04ZM34.97 12.01L35.39 12.42Q34.89 13.03 34.09 13.38Q33.29 13.72 32.37 13.72L32.37 13.72Q31.63 13.72 31.00 13.45Q30.38 13.17 29.93 12.68Q29.48 12.18 29.24 11.48Q28.99 10.78 28.99 9.93L28.99 9.93Q28.99 9.03 29.27 8.31Q29.55 7.59 30.07 7.08Q30.58 6.57 31.30 6.29Q32.02 6.02 32.89 6.02L32.89 6.02Q33.43 6.02 33.88 6.11Q34.33 6.20 34.66 6.36Q34.99 6.52 35.17 6.75Q35.35 6.99 35.35 7.25L35.35 7.25Q35.35 7.53 35.17 7.69Q34.99 7.84 34.66 7.84L34.66 7.84Q34.41 7.84 34.24 7.74Q34.08 7.63 33.81 7.27L33.81 7.27Q33.53 6.94 33.27 6.81Q33.01 6.68 32.61 6.68L32.61 6.68Q31.61 6.68 31.10 7.45Q30.59 8.22 30.59 9.72L30.59 9.72Q30.59 11.33 31.16 12.16Q31.72 12.99 32.82 12.99L32.82 12.99Q33.40 12.99 33.92 12.76Q34.44 12.53 34.97 12.01L34.97 12.01ZM38.72 9.56L38.72 11.35Q38.72 11.93 38.75 12.26Q38.78 12.60 38.90 12.78Q39.02 12.95 39.24 13.01Q39.47 13.06 39.87 13.09L39.87 13.09L39.87 13.58L36.15 13.58L36.15 13.09Q36.55 13.06 36.79 13.01Q37.03 12.95 37.16 12.78Q37.28 12.61 37.32 12.30Q37.35 11.98 37.35 11.45L37.35 11.45L37.35 5.59Q37.35 4.76 37.33 4.27Q37.31 3.78 37.25 3.53L37.25 3.53Q37.23 3.36 37.16 3.25Q37.10 3.15 36.97 3.09Q36.85 3.02 36.64 3.00Q36.43 2.97 36.12 2.97L36.12 2.97L36.12 2.49L38.70 1.96L38.70 7.29L38.75 7.29Q38.96 7.01 39.28 6.78Q39.59 6.55 39.96 6.38Q40.32 6.22 40.72 6.12Q41.12 6.02 41.50 6.02L41.50 6.02Q42.14 6.02 42.68 6.24Q43.22 6.47 43.51 6.85L43.51 6.85Q43.75 7.17 43.86 7.69Q43.97 8.22 43.97 9.11L43.97 9.11L43.97 11.35Q43.97 11.93 44.00 12.26Q44.03 12.59 44.15 12.77Q44.27 12.95 44.49 13.01Q44.72 13.06 45.12 13.09L45.12 13.09L45.12 13.58L41.41 13.58L41.41 13.09Q41.80 13.08 42.04 13.01Q42.28 12.95 42.40 12.78Q42.52 12.61 42.55 12.30Q42.59 11.98 42.59 11.45L42.59 11.45L42.59 9.69Q42.59 8.12 42.22 7.46Q41.86 6.79 41.01 6.79L41.01 6.79Q40.35 6.79 39.81 7.13Q39.27 7.46 38.96 8.05L38.96 8.05Q38.89 8.20 38.84 8.34Q38.79 8.47 38.77 8.64Q38.74 8.81 38.73 9.02Q38.72 9.24 38.72 9.56L38.72 9.56ZM51.93 9.77L51.93 8.40Q51.93 7.83 51.90 7.50Q51.87 7.17 51.75 6.99Q51.63 6.82 51.40 6.75Q51.17 6.69 50.76 6.65L50.76 6.65L50.76 6.16L53.30 6.16L53.30 10.46Q53.30 11.26 53.32 11.76Q53.34 12.26 53.38 12.52L53.38 12.52Q53.41 12.70 53.47 12.80Q53.54 12.91 53.66 12.97Q53.79 13.03 53.99 13.05Q54.19 13.08 54.52 13.08L54.52 13.08L54.52 13.57L52.21 13.73L52.05 12.05L52.00 12.05Q51.46 12.92 50.77 13.32Q50.08 13.72 49.32 13.72L49.32 13.72Q48.73 13.72 48.18 13.50Q47.63 13.27 47.35 12.89L47.35 12.89Q47.11 12.59 47.00 12.04Q46.90 11.49 46.90 10.63L46.90 10.63L46.90 8.40Q46.90 7.83 46.87 7.50Q46.84 7.17 46.72 6.99Q46.61 6.82 46.37 6.75Q46.14 6.69 45.74 6.65L45.74 6.65L45.74 6.16L48.27 6.16L48.27 9.98Q48.27 11.51 48.63 12.19Q48.99 12.88 49.77 12.88L49.77 12.88Q51.00 12.88 51.69 11.27L51.69 11.27Q51.76 11.10 51.80 10.96Q51.84 10.82 51.87 10.65Q51.90 10.49 51.91 10.28Q51.93 10.07 51.93 9.77L51.93 9.77ZM57.47 9.41L57.47 10.65Q57.47 11.19 57.62 11.63Q57.78 12.07 58.05 12.38Q58.32 12.70 58.71 12.88Q59.09 13.06 59.54 13.06L59.54 13.06Q60.03 13.06 60.43 12.84Q60.83 12.61 61.12 12.20Q61.40 11.79 61.56 11.21Q61.73 10.63 61.73 9.91L61.73 9.91Q61.73 9.20 61.56 8.60Q61.39 8.01 61.10 7.58Q60.80 7.15 60.39 6.92Q59.98 6.68 59.49 6.68L59.49 6.68Q58.91 6.68 58.46 6.95Q58.02 7.22 57.78 7.71L57.78 7.71Q57.47 8.33 57.47 9.41L57.47 9.41ZM57.44 1.96L57.44 7.15L57.50 7.15Q57.95 6.57 58.48 6.29Q59.02 6.02 59.74 6.02L59.74 6.02Q60.49 6.02 61.14 6.31Q61.80 6.61 62.28 7.13Q62.76 7.64 63.03 8.35Q63.31 9.06 63.31 9.87L63.31 9.87Q63.31 10.70 63.03 11.40Q62.75 12.11 62.27 12.63Q61.78 13.15 61.12 13.44Q60.47 13.73 59.70 13.73L59.70 13.73Q58.90 13.73 58.20 13.44Q57.51 13.15 57.06 12.64L57.06 12.64L56.41 13.58L56.10 13.58L56.10 5.12Q56.10 3.71 55.92 3.32L55.92 3.32Q55.87 3.22 55.82 3.16Q55.76 3.09 55.65 3.04Q55.54 3.00 55.34 2.95Q55.15 2.91 54.81 2.87L54.81 2.87L54.81 2.52L57.44 1.96Z"></path></g><!----><!----></svg>